<svg width="575" height="121" viewBox="0 0 575 121" fill="none" xmlns="http://www.w3.org/2000/svg">
<path fill-rule="evenodd" clip-rule="evenodd" d="M59.4742 62.7649L43.899 93.6625C43.4788 94.5044 42.8322 95.2132 42.0314 95.7084C41.2306 96.2037 40.3075 96.4658 39.3658 96.4658C38.424 96.4658 37.5009 96.2037 36.7001 95.7084C35.8994 95.2132 35.2526 94.5044 34.8325 93.6625L0.541831 25.3385C0.15329 24.568 -0.0316975 23.7111 0.00443869 22.8492C0.040575 21.9872 0.296635 21.1488 0.7483 20.4135C1.19997 19.6782 1.83225 19.0705 2.58509 18.6481C3.33793 18.2257 4.18635 18.0026 5.04978 18H36.2254C37.1678 18.0005 38.0912 18.2636 38.8921 18.7599C39.6929 19.2561 40.3394 19.9657 40.7587 20.8089L59.4742 58.2352C59.8263 58.9383 60.0097 59.7137 60.0097 60.5C60.0097 61.2863 59.8263 62.0617 59.4742 62.7649ZM59.5132 95.6616L75.9748 62.7649C76.3312 62.0583 76.5168 61.2784 76.5168 60.4873C76.5168 59.6963 76.3312 58.9163 75.9748 58.2099L59.5132 25.3132C59.1295 24.5418 58.9495 23.6853 58.9894 22.8248C59.0297 21.9644 59.289 21.1284 59.743 20.3961C60.197 19.6638 60.8306 19.0594 61.5838 18.6401C62.3365 18.2208 63.1843 18.0005 64.0463 18H95.2219C96.1646 18.0005 97.0878 18.2636 97.8887 18.7599C98.6896 19.2561 99.3361 19.9657 99.7554 20.8089L118.471 58.4376C118.819 59.1375 119 59.9083 119 60.6898C119 61.4712 118.819 62.242 118.471 62.9421L99.7554 100.191C99.3361 101.034 98.6896 101.744 97.8887 102.24C97.0878 102.737 96.1646 103 95.2219 103H64.0463C63.1808 103.002 62.3292 102.782 61.5729 102.361C60.8167 101.941 60.181 101.333 59.7261 100.597C59.2717 99.8614 59.0133 99.0212 58.976 98.1573C58.9387 97.2929 59.1238 96.4337 59.5132 95.6616Z" fill="black"/>
<path d="M205.759 24.2727H216.767V72.1065C216.767 77.1965 215.571 81.7064 213.18 85.6364C210.789 89.5426 207.428 92.6203 203.095 94.8693C198.763 97.0947 193.685 98.2074 187.861 98.2074C182.061 98.2074 176.994 97.0947 172.662 94.8693C168.33 92.6203 164.968 89.5426 162.577 85.6364C160.186 81.7064 158.99 77.1965 158.99 72.1065V24.2727H169.963V71.2188C169.963 74.5095 170.685 77.4332 172.129 79.9901C173.597 82.5469 175.669 84.5592 178.344 86.027C181.019 87.4711 184.191 88.1932 187.861 88.1932C191.554 88.1932 194.738 87.4711 197.413 86.027C200.112 84.5592 202.172 82.5469 203.592 79.9901C205.036 77.4332 205.759 74.5095 205.759 71.2188V24.2727ZM272.742 55.7713L263.118 57.4759C262.716 56.2448 262.077 55.0729 261.201 53.9602C260.348 52.8475 259.188 51.9361 257.721 51.2259C256.253 50.5156 254.418 50.1605 252.216 50.1605C249.21 50.1605 246.7 50.8352 244.688 52.1847C242.676 53.5104 241.669 55.2268 241.669 57.3338C241.669 59.1567 242.344 60.6245 243.694 61.7372C245.043 62.8499 247.221 63.7614 250.228 64.4716L258.892 66.4602C263.911 67.6203 267.652 69.4077 270.114 71.8224C272.576 74.2372 273.807 77.3741 273.807 81.233C273.807 84.5 272.86 87.4119 270.966 89.9688C269.096 92.5019 266.48 94.4905 263.118 95.9347C259.78 97.3788 255.909 98.1009 251.506 98.1009C245.398 98.1009 240.415 96.7988 236.556 94.1946C232.697 91.5668 230.329 87.8381 229.453 83.0085L239.716 81.446C240.355 84.1212 241.669 86.1454 243.658 87.5185C245.647 88.8679 248.239 89.5426 251.435 89.5426C254.915 89.5426 257.697 88.8205 259.78 87.3764C261.864 85.9086 262.905 84.1212 262.905 82.0142C262.905 80.3097 262.266 78.8774 260.988 77.7173C259.733 76.5573 257.803 75.6813 255.199 75.0895L245.966 73.0653C240.876 71.9053 237.112 70.0587 234.674 67.5256C232.259 64.9924 231.051 61.7846 231.051 57.902C231.051 54.6823 231.951 51.8651 233.75 49.4503C235.55 47.0355 238.035 45.1534 241.208 43.804C244.38 42.4309 248.014 41.7443 252.11 41.7443C258.005 41.7443 262.645 43.0227 266.03 45.5795C269.416 48.1127 271.653 51.5099 272.742 55.7713ZM308.99 98.1009C303.616 98.1009 298.988 96.9527 295.105 94.6562C291.246 92.3362 288.263 89.081 286.156 84.8906C284.073 80.6766 283.031 75.7405 283.031 70.0824C283.031 64.4953 284.073 59.571 286.156 55.3097C288.263 51.0483 291.199 47.7221 294.963 45.331C298.751 42.9399 303.178 41.7443 308.244 41.7443C311.322 41.7443 314.305 42.2533 317.193 43.2713C320.081 44.2893 322.674 45.8873 324.97 48.0653C327.267 50.2434 329.078 53.0724 330.403 56.5526C331.729 60.009 332.392 64.2112 332.392 69.1591V72.9233H289.033V64.9688H321.987C321.987 62.1752 321.419 59.7012 320.283 57.5469C319.146 55.3688 317.548 53.6525 315.489 52.3977C313.453 51.143 311.062 50.5156 308.315 50.5156C305.332 50.5156 302.728 51.2495 300.503 52.7173C298.301 54.1615 296.597 56.0554 295.389 58.3991C294.205 60.7192 293.614 63.2405 293.614 65.9631V72.1776C293.614 75.8234 294.253 78.9247 295.531 81.4815C296.833 84.0384 298.644 85.9915 300.964 87.3409C303.285 88.6667 305.995 89.3295 309.097 89.3295C311.109 89.3295 312.944 89.0455 314.601 88.4773C316.258 87.8854 317.69 87.0095 318.898 85.8494C320.105 84.6894 321.028 83.2571 321.668 81.5526L331.717 83.3636C330.912 86.3229 329.468 88.9152 327.385 91.1406C325.325 93.3423 322.733 95.0587 319.608 96.2898C316.507 97.4972 312.967 98.1009 308.99 98.1009ZM344.173 97V42.4545H354.436V51.1193H355.004C355.998 48.1837 357.75 45.8755 360.26 44.1946C362.793 42.4901 365.657 41.6378 368.853 41.6378C369.516 41.6378 370.297 41.6615 371.197 41.7088C372.12 41.7562 372.842 41.8153 373.363 41.8864V52.0426C372.937 51.9242 372.18 51.794 371.091 51.652C370.002 51.4863 368.913 51.4034 367.824 51.4034C365.314 51.4034 363.077 51.9361 361.112 53.0014C359.171 54.0431 357.632 55.4991 356.495 57.3693C355.359 59.2159 354.791 61.3229 354.791 63.6903V97H344.173ZM382.552 117.455V42.4545H392.921V51.2969H393.809C394.424 50.1605 395.312 48.8466 396.472 47.3551C397.632 45.8636 399.242 44.5616 401.302 43.4489C403.362 42.3125 406.084 41.7443 409.469 41.7443C413.873 41.7443 417.803 42.857 421.259 45.0824C424.716 47.3078 427.426 50.5156 429.391 54.706C431.38 58.8963 432.374 63.9389 432.374 69.8338C432.374 75.7287 431.392 80.7831 429.427 84.9972C427.462 89.1875 424.763 92.419 421.33 94.6918C417.897 96.9408 413.979 98.0653 409.576 98.0653C406.262 98.0653 403.551 97.509 401.444 96.3963C399.361 95.2836 397.727 93.9815 396.543 92.4901C395.36 90.9986 394.448 89.6728 393.809 88.5128H393.17V117.455H382.552ZM392.957 69.7273C392.957 73.5625 393.513 76.9242 394.626 79.8125C395.738 82.7008 397.348 84.9616 399.455 86.5952C401.562 88.205 404.143 89.0099 407.197 89.0099C410.369 89.0099 413.021 88.1695 415.151 86.4886C417.282 84.7841 418.892 82.4759 419.981 79.5639C421.094 76.652 421.65 73.3731 421.65 69.7273C421.65 66.1288 421.105 62.8973 420.016 60.0327C418.951 57.1681 417.341 54.9072 415.187 53.25C413.056 51.5928 410.393 50.7642 407.197 50.7642C404.119 50.7642 401.515 51.5573 399.384 53.1435C397.277 54.7296 395.679 56.9432 394.59 59.7841C393.501 62.625 392.957 65.9394 392.957 69.7273ZM454.888 24.2727V97H444.271V24.2727H454.888ZM492.681 98.1009C487.307 98.1009 482.679 96.9527 478.797 94.6562C474.938 92.3362 471.955 89.081 469.848 84.8906C467.764 80.6766 466.723 75.7405 466.723 70.0824C466.723 64.4953 467.764 59.571 469.848 55.3097C471.955 51.0483 474.89 47.7221 478.654 45.331C482.442 42.9399 486.869 41.7443 491.936 41.7443C495.013 41.7443 497.996 42.2533 500.885 43.2713C503.773 44.2893 506.365 45.8873 508.662 48.0653C510.958 50.2434 512.769 53.0724 514.095 56.5526C515.421 60.009 516.083 64.2112 516.083 69.1591V72.9233H472.724V64.9688H505.679C505.679 62.1752 505.11 59.7012 503.974 57.5469C502.838 55.3688 501.24 53.6525 499.18 52.3977C497.144 51.143 494.753 50.5156 492.007 50.5156C489.024 50.5156 486.42 51.2495 484.194 52.7173C481.993 54.1615 480.288 56.0554 479.081 58.3991C477.897 60.7192 477.305 63.2405 477.305 65.9631V72.1776C477.305 75.8234 477.944 78.9247 479.223 81.4815C480.525 84.0384 482.336 85.9915 484.656 87.3409C486.976 88.6667 489.687 89.3295 492.788 89.3295C494.8 89.3295 496.635 89.0455 498.292 88.4773C499.949 87.8854 501.382 87.0095 502.589 85.8494C503.797 84.6894 504.72 83.2571 505.359 81.5526L515.409 83.3636C514.604 86.3229 513.16 88.9152 511.076 91.1406C509.017 93.3423 506.424 95.0587 503.299 96.2898C500.198 97.4972 496.659 98.1009 492.681 98.1009ZM534.975 42.4545L547.014 63.6903L559.159 42.4545H570.771L553.761 69.7273L570.913 97H559.301L547.014 76.6165L534.762 97H523.115L540.089 69.7273L523.328 42.4545H534.975Z" fill="black"/>
</svg>
